<svg xmlns="http://www.w3.org/2000/svg" version="1.1" xmlns:xlink="http://www.w3.org/1999/xlink" xmlns:svgjs="http://svgjs.dev/svgjs" width="323" height="472"><a href="https://github.com/RobloxHero/MemoryStoreServerPopulating/issues/18"><rect width="323" height="54" rx="9.28" ry="9.28" style="fill: #2c2c3d;" x="0" y="0"></rect><text style="fill: #fff; font-family: AdriannaCondensed-ExtraBold, 'Adrianna Condensed'; font-size: 18.78px; font-weight: 700;" transform="matrix(1.14,0,0,1,8.31,20.11)" svgjs:data="{&quot;leading&quot;:&quot;1.3&quot;}"><tspan dy="0" x="0" svgjs:data="{&quot;newLined&quot;:true}">Character spectating not wo...</tspan></text><g id="SvgjsG1002" data-name="ðŸ”-Product-Icons" transform="matrix(1,0,0,1,0,0)">
  <g id="SvgjsG1001" data-name="ic fluent comment 24 regular">
    <path id="SvgjsPath1000" data-name="ðŸŽ¨-Color" d="m284.23,45.42c-1.23,0-2.23-.99-2.23-2.22v-5.98c0-1.22,1-2.22,2.23-2.22h9.53c1.23,0,2.23.99,2.23,2.22v5.98c0,1.22-1,2.22-2.23,2.22h-4.54l-3.29,2.56c-.36.28-.88.2-1.15-.17-.11-.15-.16-.33-.16-.51v-1.88h-.39Zm4.56-.87h5.13c.66,0,1.2-.53,1.2-1.19v-5.42c0-.66-.54-1.19-1.2-1.19h-9.84c-.66,0-1.2.53-1.2,1.19v5.42c0,.66.54,1.19,1.2,1.19h1.42v.49s0,1.95,0,1.95l3.29-2.44Z" style="fill: #7788b2;"></path>
  </g>
</g><text style="fill: #7788b2; font-family: AdriannaCondensed-ExtraBold, 'Adrianna Condensed'; font-size: 12.85px; font-weight: 700;" transform="matrix(1.04,0,0,1,302.56,44.92)" svgjs:data="{&quot;leading&quot;:&quot;1.3&quot;}"><tspan dy="0" x="0" svgjs:data="{&quot;newLined&quot;:true}">0</tspan></text><rect x="9" y="30" width="109" height="18" rx="6.2" ry="6.2" style="fill: #9cbc6f;" transform="matrix(1,0,0,1,0,0)"></rect><text style="fill: #2c2c3d; font-family: AdriannaCondensed-ExtraBold, 'Adrianna Condensed'; font-size: 12.43px; font-weight: 800;" transform="matrix(1.29,0,0,1,15.73,43.63)" svgjs:data="{&quot;leading&quot;:&quot;1.3&quot;}"><tspan x="0" y="0">working on it</tspan></text></a><svg width="2" height="0" style="opacity: 0; position: absolute; left: -100%; top: -100%; overflow: hidden;" focusable="false" aria-hidden="true"><path d="M0 0 "></path></svg><a href="https://github.com/RobloxHero/MemoryStoreServerPopulating/issues/17"><rect width="323" height="54" rx="9.28" ry="9.28" style="fill: #2c2c3d;" x="0" y="59"></rect><text style="fill: #fff; font-family: AdriannaCondensed-ExtraBold, 'Adrianna Condensed'; font-size: 18.78px; font-weight: 700;" transform="matrix(1.14,0,0,1,8.31,79.11)" svgjs:data="{&quot;leading&quot;:&quot;1.3&quot;}"><tspan dy="0" x="0" svgjs:data="{&quot;newLined&quot;:true}">Fix the tag function</tspan></text><g id="SvgjsG1005" data-name="ðŸ”-Product-Icons" transform="matrix(1,0,0,1,0,59)">
  <g id="SvgjsG1004" data-name="ic fluent comment 24 regular">
    <path id="SvgjsPath1003" data-name="ðŸŽ¨-Color" d="m284.23,45.42c-1.23,0-2.23-.99-2.23-2.22v-5.98c0-1.22,1-2.22,2.23-2.22h9.53c1.23,0,2.23.99,2.23,2.22v5.98c0,1.22-1,2.22-2.23,2.22h-4.54l-3.29,2.56c-.36.28-.88.2-1.15-.17-.11-.15-.16-.33-.16-.51v-1.88h-.39Zm4.56-.87h5.13c.66,0,1.2-.53,1.2-1.19v-5.42c0-.66-.54-1.19-1.2-1.19h-9.84c-.66,0-1.2.53-1.2,1.19v5.42c0,.66.54,1.19,1.2,1.19h1.42v.49s0,1.95,0,1.95l3.29-2.44Z" style="fill: #7788b2;"></path>
  </g>
</g><text style="fill: #7788b2; font-family: AdriannaCondensed-ExtraBold, 'Adrianna Condensed'; font-size: 12.85px; font-weight: 700;" transform="matrix(1.04,0,0,1,302.56,103.92)" svgjs:data="{&quot;leading&quot;:&quot;1.3&quot;}"><tspan dy="0" x="0" svgjs:data="{&quot;newLined&quot;:true}">0</tspan></text><rect x="9" y="30" width="109" height="18" rx="6.2" ry="6.2" style="fill: #9cbc6f;" transform="matrix(1,0,0,1,0,59)"></rect><text style="fill: #2c2c3d; font-family: AdriannaCondensed-ExtraBold, 'Adrianna Condensed'; font-size: 12.43px; font-weight: 800;" transform="matrix(1.29,0,0,1,15.73,102.63)" svgjs:data="{&quot;leading&quot;:&quot;1.3&quot;}"><tspan x="0" y="0">working on it</tspan></text></a><a href="https://github.com/RobloxHero/MemoryStoreServerPopulating/issues/16"><rect width="323" height="54" rx="9.28" ry="9.28" style="fill: #2c2c3d;" x="0" y="118"></rect><text style="fill: #fff; font-family: AdriannaCondensed-ExtraBold, 'Adrianna Condensed'; font-size: 18.78px; font-weight: 700;" transform="matrix(1.14,0,0,1,8.31,138.11)" svgjs:data="{&quot;leading&quot;:&quot;1.3&quot;}"><tspan dy="0" x="0" svgjs:data="{&quot;newLined&quot;:true}">Join button on server list</tspan></text><g id="SvgjsG1008" data-name="ðŸ”-Product-Icons" transform="matrix(1,0,0,1,0,118)">
  <g id="SvgjsG1007" data-name="ic fluent comment 24 regular">
    <path id="SvgjsPath1006" data-name="ðŸŽ¨-Color" d="m284.23,45.42c-1.23,0-2.23-.99-2.23-2.22v-5.98c0-1.22,1-2.22,2.23-2.22h9.53c1.23,0,2.23.99,2.23,2.22v5.98c0,1.22-1,2.22-2.23,2.22h-4.54l-3.29,2.56c-.36.28-.88.2-1.15-.17-.11-.15-.16-.33-.16-.51v-1.88h-.39Zm4.56-.87h5.13c.66,0,1.2-.53,1.2-1.19v-5.42c0-.66-.54-1.19-1.2-1.19h-9.84c-.66,0-1.2.53-1.2,1.19v5.42c0,.66.54,1.19,1.2,1.19h1.42v.49s0,1.95,0,1.95l3.29-2.44Z" style="fill: #7788b2;"></path>
  </g>
</g><text style="fill: #7788b2; font-family: AdriannaCondensed-ExtraBold, 'Adrianna Condensed'; font-size: 12.85px; font-weight: 700;" transform="matrix(1.04,0,0,1,302.56,162.92000000000002)" svgjs:data="{&quot;leading&quot;:&quot;1.3&quot;}"><tspan dy="0" x="0" svgjs:data="{&quot;newLined&quot;:true}">0</tspan></text><rect x="9" y="30" width="109" height="18" rx="6.2" ry="6.2" style="fill: #9cbc6f;" transform="matrix(1,0,0,1,0,118)"></rect><text style="fill: #2c2c3d; font-family: AdriannaCondensed-ExtraBold, 'Adrianna Condensed'; font-size: 12.43px; font-weight: 800;" transform="matrix(1.29,0,0,1,15.73,161.63)" svgjs:data="{&quot;leading&quot;:&quot;1.3&quot;}"><tspan x="0" y="0">working on it</tspan></text></a><a href="https://github.com/RobloxHero/MemoryStoreServerPopulating/issues/15"><rect width="323" height="54" rx="9.28" ry="9.28" style="fill: #2c2c3d;" x="0" y="177"></rect><text style="fill: #fff; font-family: AdriannaCondensed-ExtraBold, 'Adrianna Condensed'; font-size: 18.78px; font-weight: 700;" transform="matrix(1.14,0,0,1,8.31,197.11)" svgjs:data="{&quot;leading&quot;:&quot;1.3&quot;}"><tspan dy="0" x="0" svgjs:data="{&quot;newLined&quot;:true}">Pagenation on the server li...</tspan></text><g id="SvgjsG1011" data-name="ðŸ”-Product-Icons" transform="matrix(1,0,0,1,0,177)">
  <g id="SvgjsG1010" data-name="ic fluent comment 24 regular">
    <path id="SvgjsPath1009" data-name="ðŸŽ¨-Color" d="m284.23,45.42c-1.23,0-2.23-.99-2.23-2.22v-5.98c0-1.22,1-2.22,2.23-2.22h9.53c1.23,0,2.23.99,2.23,2.22v5.98c0,1.22-1,2.22-2.23,2.22h-4.54l-3.29,2.56c-.36.28-.88.2-1.15-.17-.11-.15-.16-.33-.16-.51v-1.88h-.39Zm4.56-.87h5.13c.66,0,1.2-.53,1.2-1.19v-5.42c0-.66-.54-1.19-1.2-1.19h-9.84c-.66,0-1.2.53-1.2,1.19v5.42c0,.66.54,1.19,1.2,1.19h1.42v.49s0,1.95,0,1.95l3.29-2.44Z" style="fill: #7788b2;"></path>
  </g>
</g><text style="fill: #7788b2; font-family: AdriannaCondensed-ExtraBold, 'Adrianna Condensed'; font-size: 12.85px; font-weight: 700;" transform="matrix(1.04,0,0,1,302.56,221.92000000000002)" svgjs:data="{&quot;leading&quot;:&quot;1.3&quot;}"><tspan dy="0" x="0" svgjs:data="{&quot;newLined&quot;:true}">0</tspan></text><rect x="9" y="30" width="109" height="18" rx="6.2" ry="6.2" style="fill: #9cbc6f;" transform="matrix(1,0,0,1,0,177)"></rect><text style="fill: #2c2c3d; font-family: AdriannaCondensed-ExtraBold, 'Adrianna Condensed'; font-size: 12.43px; font-weight: 800;" transform="matrix(1.29,0,0,1,15.73,220.63)" svgjs:data="{&quot;leading&quot;:&quot;1.3&quot;}"><tspan x="0" y="0">working on it</tspan></text></a><a href="https://github.com/RobloxHero/MemoryStoreServerPopulating/issues/14"><rect width="323" height="54" rx="9.28" ry="9.28" style="fill: #2c2c3d;" x="0" y="236"></rect><text style="fill: #fff; font-family: AdriannaCondensed-ExtraBold, 'Adrianna Condensed'; font-size: 18.78px; font-weight: 700;" transform="matrix(1.14,0,0,1,8.31,256.11)" svgjs:data="{&quot;leading&quot;:&quot;1.3&quot;}"><tspan dy="0" x="0" svgjs:data="{&quot;newLined&quot;:true}">Follow the freind when a jo...</tspan></text><g id="SvgjsG1014" data-name="ðŸ”-Product-Icons" transform="matrix(1,0,0,1,0,236)">
  <g id="SvgjsG1013" data-name="ic fluent comment 24 regular">
    <path id="SvgjsPath1012" data-name="ðŸŽ¨-Color" d="m284.23,45.42c-1.23,0-2.23-.99-2.23-2.22v-5.98c0-1.22,1-2.22,2.23-2.22h9.53c1.23,0,2.23.99,2.23,2.22v5.98c0,1.22-1,2.22-2.23,2.22h-4.54l-3.29,2.56c-.36.28-.88.2-1.15-.17-.11-.15-.16-.33-.16-.51v-1.88h-.39Zm4.56-.87h5.13c.66,0,1.2-.53,1.2-1.19v-5.42c0-.66-.54-1.19-1.2-1.19h-9.84c-.66,0-1.2.53-1.2,1.19v5.42c0,.66.54,1.19,1.2,1.19h1.42v.49s0,1.95,0,1.95l3.29-2.44Z" style="fill: #7788b2;"></path>
  </g>
</g><text style="fill: #7788b2; font-family: AdriannaCondensed-ExtraBold, 'Adrianna Condensed'; font-size: 12.85px; font-weight: 700;" transform="matrix(1.04,0,0,1,302.56,280.92)" svgjs:data="{&quot;leading&quot;:&quot;1.3&quot;}"><tspan dy="0" x="0" svgjs:data="{&quot;newLined&quot;:true}">0</tspan></text><rect x="9" y="30" width="109" height="18" rx="6.2" ry="6.2" style="fill: #9cbc6f;" transform="matrix(1,0,0,1,0,236)"></rect><text style="fill: #2c2c3d; font-family: AdriannaCondensed-ExtraBold, 'Adrianna Condensed'; font-size: 12.43px; font-weight: 800;" transform="matrix(1.29,0,0,1,15.73,279.63)" svgjs:data="{&quot;leading&quot;:&quot;1.3&quot;}"><tspan x="0" y="0">working on it</tspan></text></a><a href="https://github.com/RobloxHero/MemoryStoreServerPopulating/issues/13"><rect width="323" height="54" rx="9.28" ry="9.28" style="fill: #2c2c3d;" x="0" y="295"></rect><text style="fill: #fff; font-family: AdriannaCondensed-ExtraBold, 'Adrianna Condensed'; font-size: 18.78px; font-weight: 700;" transform="matrix(1.14,0,0,1,8.31,315.11)" svgjs:data="{&quot;leading&quot;:&quot;1.3&quot;}"><tspan dy="0" x="0" svgjs:data="{&quot;newLined&quot;:true}">Research NonProfit</tspan></text><g id="SvgjsG1017" data-name="ðŸ”-Product-Icons" transform="matrix(1,0,0,1,0,295)">
  <g id="SvgjsG1016" data-name="ic fluent comment 24 regular">
    <path id="SvgjsPath1015" data-name="ðŸŽ¨-Color" d="m284.23,45.42c-1.23,0-2.23-.99-2.23-2.22v-5.98c0-1.22,1-2.22,2.23-2.22h9.53c1.23,0,2.23.99,2.23,2.22v5.98c0,1.22-1,2.22-2.23,2.22h-4.54l-3.29,2.56c-.36.28-.88.2-1.15-.17-.11-.15-.16-.33-.16-.51v-1.88h-.39Zm4.56-.87h5.13c.66,0,1.2-.53,1.2-1.19v-5.42c0-.66-.54-1.19-1.2-1.19h-9.84c-.66,0-1.2.53-1.2,1.19v5.42c0,.66.54,1.19,1.2,1.19h1.42v.49s0,1.95,0,1.95l3.29-2.44Z" style="fill: #7788b2;"></path>
  </g>
</g><text style="fill: #7788b2; font-family: AdriannaCondensed-ExtraBold, 'Adrianna Condensed'; font-size: 12.85px; font-weight: 700;" transform="matrix(1.04,0,0,1,302.56,339.92)" svgjs:data="{&quot;leading&quot;:&quot;1.3&quot;}"><tspan dy="0" x="0" svgjs:data="{&quot;newLined&quot;:true}">0</tspan></text><rect x="9" y="30" width="46" height="18" rx="6.2" ry="6.2" style="fill: #ff7bac;" transform="matrix(1,0,0,1,0,295)"></rect><text style="fill: #2c2c3d; font-family: AdriannaCondensed-ExtraBold, 'Adrianna Condensed'; font-size: 12.43px; font-weight: 800;" transform="matrix(1.29,0,0,1,15.73,338.63)" svgjs:data="{&quot;leading&quot;:&quot;1.3&quot;}"><tspan x="0" y="0" style="letter-spacing: -.01em;">t</tspan><tspan x="4.08" y="0">odo</tspan></text></a><a href="https://github.com/RobloxHero/MemoryStoreServerPopulating/issues/3"><rect width="323" height="54" rx="9.28" ry="9.28" style="fill: #2c2c3d;" x="0" y="354"></rect><text style="fill: #fff; font-family: AdriannaCondensed-ExtraBold, 'Adrianna Condensed'; font-size: 18.78px; font-weight: 700;" transform="matrix(1.14,0,0,1,8.31,374.11)" svgjs:data="{&quot;leading&quot;:&quot;1.3&quot;}"><tspan dy="0" x="0" svgjs:data="{&quot;newLined&quot;:true}">Server Admin List</tspan></text><g id="SvgjsG1020" data-name="ðŸ”-Product-Icons" transform="matrix(1,0,0,1,0,354)">
  <g id="SvgjsG1019" data-name="ic fluent comment 24 regular">
    <path id="SvgjsPath1018" data-name="ðŸŽ¨-Color" d="m284.23,45.42c-1.23,0-2.23-.99-2.23-2.22v-5.98c0-1.22,1-2.22,2.23-2.22h9.53c1.23,0,2.23.99,2.23,2.22v5.98c0,1.22-1,2.22-2.23,2.22h-4.54l-3.29,2.56c-.36.28-.88.2-1.15-.17-.11-.15-.16-.33-.16-.51v-1.88h-.39Zm4.56-.87h5.13c.66,0,1.2-.53,1.2-1.19v-5.42c0-.66-.54-1.19-1.2-1.19h-9.84c-.66,0-1.2.53-1.2,1.19v5.42c0,.66.54,1.19,1.2,1.19h1.42v.49s0,1.95,0,1.95l3.29-2.44Z" style="fill: #7788b2;"></path>
  </g>
</g><text style="fill: #7788b2; font-family: AdriannaCondensed-ExtraBold, 'Adrianna Condensed'; font-size: 12.85px; font-weight: 700;" transform="matrix(1.04,0,0,1,302.56,398.92)" svgjs:data="{&quot;leading&quot;:&quot;1.3&quot;}"><tspan dy="0" x="0" svgjs:data="{&quot;newLined&quot;:true}">0</tspan></text><rect x="9" y="30" width="109" height="18" rx="6.2" ry="6.2" style="fill: #9cbc6f;" transform="matrix(1,0,0,1,0,354)"></rect><text style="fill: #2c2c3d; font-family: AdriannaCondensed-ExtraBold, 'Adrianna Condensed'; font-size: 12.43px; font-weight: 800;" transform="matrix(1.29,0,0,1,15.73,397.63)" svgjs:data="{&quot;leading&quot;:&quot;1.3&quot;}"><tspan x="0" y="0">working on it</tspan></text></a><a href="https://github.com/RobloxHero/MemoryStoreServerPopulating/issues/2"><rect width="323" height="54" rx="9.28" ry="9.28" style="fill: #2c2c3d;" x="0" y="413"></rect><text style="fill: #fff; font-family: AdriannaCondensed-ExtraBold, 'Adrianna Condensed'; font-size: 18.78px; font-weight: 700;" transform="matrix(1.14,0,0,1,8.31,433.11)" svgjs:data="{&quot;leading&quot;:&quot;1.3&quot;}"><tspan dy="0" x="0" svgjs:data="{&quot;newLined&quot;:true}">Add Retry Logic</tspan></text><g id="SvgjsG1023" data-name="ðŸ”-Product-Icons" transform="matrix(1,0,0,1,0,413)">
  <g id="SvgjsG1022" data-name="ic fluent comment 24 regular">
    <path id="SvgjsPath1021" data-name="ðŸŽ¨-Color" d="m284.23,45.42c-1.23,0-2.23-.99-2.23-2.22v-5.98c0-1.22,1-2.22,2.23-2.22h9.53c1.23,0,2.23.99,2.23,2.22v5.98c0,1.22-1,2.22-2.23,2.22h-4.54l-3.29,2.56c-.36.28-.88.2-1.15-.17-.11-.15-.16-.33-.16-.51v-1.88h-.39Zm4.56-.87h5.13c.66,0,1.2-.53,1.2-1.19v-5.42c0-.66-.54-1.19-1.2-1.19h-9.84c-.66,0-1.2.53-1.2,1.19v5.42c0,.66.54,1.19,1.2,1.19h1.42v.49s0,1.95,0,1.95l3.29-2.44Z" style="fill: #7788b2;"></path>
  </g>
</g><text style="fill: #7788b2; font-family: AdriannaCondensed-ExtraBold, 'Adrianna Condensed'; font-size: 12.85px; font-weight: 700;" transform="matrix(1.04,0,0,1,302.56,457.92)" svgjs:data="{&quot;leading&quot;:&quot;1.3&quot;}"><tspan dy="0" x="0" svgjs:data="{&quot;newLined&quot;:true}">0</tspan></text><rect x="9" y="30" width="46" height="18" rx="6.2" ry="6.2" style="fill: #ff7bac;" transform="matrix(1,0,0,1,0,413)"></rect><text style="fill: #2c2c3d; font-family: AdriannaCondensed-ExtraBold, 'Adrianna Condensed'; font-size: 12.43px; font-weight: 800;" transform="matrix(1.29,0,0,1,15.73,456.63)" svgjs:data="{&quot;leading&quot;:&quot;1.3&quot;}"><tspan x="0" y="0" style="letter-spacing: -.01em;">t</tspan><tspan x="4.08" y="0">odo</tspan></text></a></svg>